<mxfile host="Electron" agent="Mozilla/5.0 (Macintosh; Intel Mac OS X 10_15_7) AppleWebKit/537.36 (KHTML, like Gecko) draw.io/26.0.16 Chrome/132.0.6834.196 Electron/34.2.0 Safari/537.36" version="26.0.16" pages="2">
  <diagram name="overview" id="gOyFfyGbaRmhrFQZIJyA">
    <mxGraphModel dx="1434" dy="907" grid="1" gridSize="10" guides="1" tooltips="1" connect="1" arrows="1" fold="1" page="1" pageScale="1" pageWidth="850" pageHeight="1100" background="none" math="0" shadow="0">
      <root>
        <mxCell id="0" />
        <mxCell id="1" parent="0" />
        <mxCell id="7Btqr06UIAeR0Ix5BqG7-14" style="edgeStyle=orthogonalEdgeStyle;rounded=0;orthogonalLoop=1;jettySize=auto;html=1;" edge="1" parent="1" source="7Btqr06UIAeR0Ix5BqG7-2" target="7Btqr06UIAeR0Ix5BqG7-4">
          <mxGeometry relative="1" as="geometry" />
        </mxCell>
        <mxCell id="7Btqr06UIAeR0Ix5BqG7-2" value="Agent Service" style="whiteSpace=wrap;html=1;aspect=fixed;labelPosition=center;verticalLabelPosition=middle;align=center;verticalAlign=middle;" vertex="1" parent="1">
          <mxGeometry x="440" y="285" width="195" height="195" as="geometry" />
        </mxCell>
        <mxCell id="7Btqr06UIAeR0Ix5BqG7-3" value="Query Classifier" style="whiteSpace=wrap;html=1;aspect=fixed;labelPosition=center;verticalLabelPosition=middle;align=center;verticalAlign=middle;" vertex="1" parent="1">
          <mxGeometry x="465" y="30" width="145" height="145" as="geometry" />
        </mxCell>
        <mxCell id="7Btqr06UIAeR0Ix5BqG7-10" style="edgeStyle=orthogonalEdgeStyle;rounded=0;orthogonalLoop=1;jettySize=auto;html=1;exitX=0.25;exitY=0;exitDx=0;exitDy=0;entryX=0.159;entryY=1.028;entryDx=0;entryDy=0;entryPerimeter=0;" edge="1" parent="1" source="7Btqr06UIAeR0Ix5BqG7-2" target="7Btqr06UIAeR0Ix5BqG7-3">
          <mxGeometry relative="1" as="geometry" />
        </mxCell>
        <mxCell id="7Btqr06UIAeR0Ix5BqG7-11" style="edgeStyle=orthogonalEdgeStyle;rounded=0;orthogonalLoop=1;jettySize=auto;html=1;exitX=0.75;exitY=1;exitDx=0;exitDy=0;entryX=0.682;entryY=-0.01;entryDx=0;entryDy=0;entryPerimeter=0;" edge="1" parent="1" source="7Btqr06UIAeR0Ix5BqG7-3" target="7Btqr06UIAeR0Ix5BqG7-2">
          <mxGeometry relative="1" as="geometry" />
        </mxCell>
        <mxCell id="7Btqr06UIAeR0Ix5BqG7-12" value="" style="group" vertex="1" connectable="0" parent="1">
          <mxGeometry x="1010" y="460" width="120" height="120" as="geometry" />
        </mxCell>
        <mxCell id="7Btqr06UIAeR0Ix5BqG7-7" value="" style="whiteSpace=wrap;html=1;aspect=fixed;" vertex="1" parent="7Btqr06UIAeR0Ix5BqG7-12">
          <mxGeometry width="120" height="120" as="geometry" />
        </mxCell>
        <mxCell id="7Btqr06UIAeR0Ix5BqG7-8" value="" style="sketch=0;outlineConnect=0;fontColor=#232F3E;gradientColor=none;fillColor=#232F3D;strokeColor=none;dashed=0;verticalLabelPosition=bottom;verticalAlign=top;align=center;html=1;fontSize=12;fontStyle=0;aspect=fixed;pointerEvents=1;shape=mxgraph.aws4.traditional_server;" vertex="1" parent="7Btqr06UIAeR0Ix5BqG7-12">
          <mxGeometry x="37.5" y="21" width="45" height="78" as="geometry" />
        </mxCell>
        <mxCell id="7Btqr06UIAeR0Ix5BqG7-13" value="" style="group" vertex="1" connectable="0" parent="1">
          <mxGeometry x="1010" y="200" width="120" height="120" as="geometry" />
        </mxCell>
        <mxCell id="7Btqr06UIAeR0Ix5BqG7-4" value="" style="whiteSpace=wrap;html=1;aspect=fixed;" vertex="1" parent="7Btqr06UIAeR0Ix5BqG7-13">
          <mxGeometry width="120" height="120" as="geometry" />
        </mxCell>
        <mxCell id="7Btqr06UIAeR0Ix5BqG7-6" value="" style="sketch=0;outlineConnect=0;fontColor=#232F3E;gradientColor=none;fillColor=#232F3D;strokeColor=none;dashed=0;verticalLabelPosition=bottom;verticalAlign=top;align=center;html=1;fontSize=12;fontStyle=0;aspect=fixed;pointerEvents=1;shape=mxgraph.aws4.traditional_server;" vertex="1" parent="7Btqr06UIAeR0Ix5BqG7-13">
          <mxGeometry x="37.5" y="21" width="45" height="78" as="geometry" />
        </mxCell>
        <mxCell id="7Btqr06UIAeR0Ix5BqG7-15" style="edgeStyle=orthogonalEdgeStyle;rounded=0;orthogonalLoop=1;jettySize=auto;html=1;entryX=0;entryY=0.583;entryDx=0;entryDy=0;entryPerimeter=0;" edge="1" parent="1" source="7Btqr06UIAeR0Ix5BqG7-2" target="7Btqr06UIAeR0Ix5BqG7-7">
          <mxGeometry relative="1" as="geometry" />
        </mxCell>
        <mxCell id="7Btqr06UIAeR0Ix5BqG7-17" style="edgeStyle=orthogonalEdgeStyle;rounded=0;orthogonalLoop=1;jettySize=auto;html=1;entryX=0;entryY=0.5;entryDx=0;entryDy=0;" edge="1" parent="1" source="7Btqr06UIAeR0Ix5BqG7-16" target="7Btqr06UIAeR0Ix5BqG7-2">
          <mxGeometry relative="1" as="geometry" />
        </mxCell>
        <mxCell id="7Btqr06UIAeR0Ix5BqG7-18" value="Query" style="edgeLabel;html=1;align=center;verticalAlign=middle;resizable=0;points=[];" vertex="1" connectable="0" parent="7Btqr06UIAeR0Ix5BqG7-17">
          <mxGeometry x="-0.1679" y="1" relative="1" as="geometry">
            <mxPoint x="1" y="1" as="offset" />
          </mxGeometry>
        </mxCell>
        <mxCell id="7Btqr06UIAeR0Ix5BqG7-16" value="" style="points=[[0.35,0,0],[0.98,0.51,0],[1,0.71,0],[0.67,1,0],[0,0.795,0],[0,0.65,0]];verticalLabelPosition=bottom;sketch=0;html=1;verticalAlign=top;aspect=fixed;align=center;pointerEvents=1;shape=mxgraph.cisco19.user;fillColor=#005073;strokeColor=none;" vertex="1" parent="1">
          <mxGeometry x="110" y="357.5" width="50" height="50" as="geometry" />
        </mxCell>
      </root>
    </mxGraphModel>
  </diagram>
  <diagram id="5BbvBIBQc9ZJH7xFCMHj" name="detail view">
    <mxGraphModel dx="3056" dy="2495" grid="1" gridSize="10" guides="1" tooltips="1" connect="1" arrows="1" fold="1" page="1" pageScale="1" pageWidth="850" pageHeight="1100" math="0" shadow="0">
      <root>
        <mxCell id="0" />
        <mxCell id="1" parent="0" />
        <mxCell id="XyMJvcN_3Er1XZFIF6w--23" style="edgeStyle=orthogonalEdgeStyle;rounded=0;orthogonalLoop=1;jettySize=auto;html=1;exitX=0.75;exitY=1;exitDx=0;exitDy=0;" edge="1" parent="1" source="XyMJvcN_3Er1XZFIF6w--13" target="XyMJvcN_3Er1XZFIF6w--20">
          <mxGeometry relative="1" as="geometry">
            <Array as="points">
              <mxPoint x="203" y="210" />
              <mxPoint x="115" y="210" />
            </Array>
          </mxGeometry>
        </mxCell>
        <mxCell id="XyMJvcN_3Er1XZFIF6w--13" value="" style="rounded=1;whiteSpace=wrap;html=1;dashed=1;dashPattern=8 8;" vertex="1" parent="1">
          <mxGeometry x="-90" y="-260" width="390" height="350" as="geometry" />
        </mxCell>
        <mxCell id="XyMJvcN_3Er1XZFIF6w--12" value="" style="rounded=1;whiteSpace=wrap;html=1;dashed=1;dashPattern=8 8;" vertex="1" parent="1">
          <mxGeometry x="-130" y="250" width="860" height="400" as="geometry" />
        </mxCell>
        <mxCell id="XyMJvcN_3Er1XZFIF6w--11" style="edgeStyle=orthogonalEdgeStyle;rounded=0;orthogonalLoop=1;jettySize=auto;html=1;entryX=0;entryY=0.5;entryDx=0;entryDy=0;" edge="1" parent="1" source="XyMJvcN_3Er1XZFIF6w--2" target="XyMJvcN_3Er1XZFIF6w--4">
          <mxGeometry relative="1" as="geometry" />
        </mxCell>
        <mxCell id="XyMJvcN_3Er1XZFIF6w--2" value="" style="rounded=1;whiteSpace=wrap;html=1;" vertex="1" parent="1">
          <mxGeometry x="360" y="370" width="120" height="60" as="geometry" />
        </mxCell>
        <mxCell id="XyMJvcN_3Er1XZFIF6w--10" style="edgeStyle=orthogonalEdgeStyle;rounded=0;orthogonalLoop=1;jettySize=auto;html=1;entryX=0;entryY=0.5;entryDx=0;entryDy=0;" edge="1" parent="1" source="XyMJvcN_3Er1XZFIF6w--3" target="XyMJvcN_3Er1XZFIF6w--4">
          <mxGeometry relative="1" as="geometry" />
        </mxCell>
        <mxCell id="XyMJvcN_3Er1XZFIF6w--3" value="" style="rounded=1;whiteSpace=wrap;html=1;" vertex="1" parent="1">
          <mxGeometry x="360" y="510" width="120" height="60" as="geometry" />
        </mxCell>
        <mxCell id="XyMJvcN_3Er1XZFIF6w--4" value="" style="rounded=1;whiteSpace=wrap;html=1;" vertex="1" parent="1">
          <mxGeometry x="580" y="440" width="120" height="60" as="geometry" />
        </mxCell>
        <mxCell id="XyMJvcN_3Er1XZFIF6w--6" style="edgeStyle=orthogonalEdgeStyle;rounded=0;orthogonalLoop=1;jettySize=auto;html=1;" edge="1" parent="1" source="XyMJvcN_3Er1XZFIF6w--20" target="XyMJvcN_3Er1XZFIF6w--7">
          <mxGeometry relative="1" as="geometry">
            <mxPoint x="140" y="470" as="targetPoint" />
          </mxGeometry>
        </mxCell>
        <mxCell id="XyMJvcN_3Er1XZFIF6w--5" value="" style="rounded=1;whiteSpace=wrap;html=1;" vertex="1" parent="1">
          <mxGeometry x="-80" y="435" width="120" height="60" as="geometry" />
        </mxCell>
        <mxCell id="XyMJvcN_3Er1XZFIF6w--8" style="edgeStyle=orthogonalEdgeStyle;rounded=0;orthogonalLoop=1;jettySize=auto;html=1;entryX=0;entryY=0.5;entryDx=0;entryDy=0;" edge="1" parent="1" source="XyMJvcN_3Er1XZFIF6w--7" target="XyMJvcN_3Er1XZFIF6w--2">
          <mxGeometry relative="1" as="geometry" />
        </mxCell>
        <mxCell id="XyMJvcN_3Er1XZFIF6w--9" style="edgeStyle=orthogonalEdgeStyle;rounded=0;orthogonalLoop=1;jettySize=auto;html=1;entryX=0;entryY=0.5;entryDx=0;entryDy=0;" edge="1" parent="1" source="XyMJvcN_3Er1XZFIF6w--7" target="XyMJvcN_3Er1XZFIF6w--3">
          <mxGeometry relative="1" as="geometry" />
        </mxCell>
        <mxCell id="XyMJvcN_3Er1XZFIF6w--7" value="" style="triangle;whiteSpace=wrap;html=1;" vertex="1" parent="1">
          <mxGeometry x="190" y="425" width="60" height="80" as="geometry" />
        </mxCell>
        <mxCell id="XyMJvcN_3Er1XZFIF6w--16" value="" style="group" vertex="1" connectable="0" parent="1">
          <mxGeometry x="52.25" y="-137.75" width="105.5" height="105.5" as="geometry" />
        </mxCell>
        <mxCell id="XyMJvcN_3Er1XZFIF6w--15" value="" style="whiteSpace=wrap;html=1;aspect=fixed;rounded=1;" vertex="1" parent="XyMJvcN_3Er1XZFIF6w--16">
          <mxGeometry width="105.5" height="105.5" as="geometry" />
        </mxCell>
        <mxCell id="XyMJvcN_3Er1XZFIF6w--14" value="" style="sketch=0;outlineConnect=0;fontColor=#232F3E;gradientColor=none;fillColor=#01A88D;strokeColor=none;dashed=0;verticalLabelPosition=bottom;verticalAlign=top;align=center;html=1;fontSize=12;fontStyle=0;aspect=fixed;pointerEvents=1;shape=mxgraph.aws4.sagemaker_model;" vertex="1" parent="XyMJvcN_3Er1XZFIF6w--16">
          <mxGeometry x="12.75" y="12.75" width="80" height="80" as="geometry" />
        </mxCell>
        <mxCell id="XyMJvcN_3Er1XZFIF6w--21" value="" style="edgeStyle=orthogonalEdgeStyle;rounded=0;orthogonalLoop=1;jettySize=auto;html=1;" edge="1" parent="1" source="XyMJvcN_3Er1XZFIF6w--5" target="XyMJvcN_3Er1XZFIF6w--20">
          <mxGeometry relative="1" as="geometry">
            <mxPoint x="60" y="470" as="sourcePoint" />
            <mxPoint x="150" y="470" as="targetPoint" />
          </mxGeometry>
        </mxCell>
        <mxCell id="XyMJvcN_3Er1XZFIF6w--20" value="" style="whiteSpace=wrap;html=1;aspect=fixed;" vertex="1" parent="1">
          <mxGeometry x="80" y="430" width="70" height="70" as="geometry" />
        </mxCell>
        <mxCell id="XyMJvcN_3Er1XZFIF6w--22" style="edgeStyle=orthogonalEdgeStyle;rounded=0;orthogonalLoop=1;jettySize=auto;html=1;entryX=0.332;entryY=1.001;entryDx=0;entryDy=0;entryPerimeter=0;" edge="1" parent="1" source="XyMJvcN_3Er1XZFIF6w--20" target="XyMJvcN_3Er1XZFIF6w--13">
          <mxGeometry relative="1" as="geometry">
            <Array as="points">
              <mxPoint x="115" y="210" />
              <mxPoint x="40" y="210" />
            </Array>
          </mxGeometry>
        </mxCell>
      </root>
    </mxGraphModel>
  </diagram>
</mxfile>
